{"title":"Apres la Vie akter Life (2002)- Belvaux's trilogy","uid":9505848,"size":733895489,"categoryP":"video","categoryS":"movies","magnet":"?xt=urn:btih:48388ef00e8ae9e4c10d75121d95e3e67e4d4d0a&amp;dn=Apres+la+Vie+akter+Life+%282002%29-+Belvaux%27s+trilogy&amp;tr=udp%3A%2F%2Ftracker.openbittorrent.com%3A80&amp;tr=udp%3A%2F%2Fopen.demonii.com%3A1337&amp;tr=udp%3A%2F%2Ftracker.coppersurfer.tk%3A6969&amp;tr=udp%3A%2F%2Fexodus.desync.com%3A6969","seeders":1,"leechers":0,"uploader":"Aaaameida","files":-1,"time":1390316289,"description":"In the final chapter of director Belvaux's trilogy, Pascal, now a disgraced cop, seeks redemption by capturing Bruno, a fugitive with a strange connection to Agnes, Pascal's heroin-addicted wife.\n\nLanguage: French\nSubtitles: English, Spanish and Portuguese\n &lt;a href=&quot;\nhttp://www.imdb.com/title/tt0233230&quot; rel=&quot;nofollow&quot; target=&quot;_NEW&quot;&gt;\nhttp://www.imdb.com/title/tt0233230&lt;/a&gt;\n\n\n      Format : AVI\n      Format/Info : Audio Video Interleave\n      File size : 700 MiB\n      Duration : 1h 59mn\n      Overall bit rate : 816 Kbps\n      Writing application : FairUse Wizard - http://fairusewizard.com\n      Writing library : The best and REALLY easy backup tool\n   Video #0\n      ID : 0\n      Format : MPEG-4 Visual\n      Format profile : AdvancedSimple@L5\n      Format settings, BVOP : Yes\n      Format settings, QPel : No\n      Format settings, GMC : No warppoints\n      Format settings, Matrix : Default (MPEG)\n      Muxing mode : Packed bitstream\n      Codec ID : XVID\n      Codec ID/Hint : XviD\n      Duration : 1h 59mn\n      Bit rate : 679 Kbps\n      Width : 512 pixels\n      Height : 304 pixels\n      Display aspect ratio : 1.684\n      Frame rate : 25.000 fps\n      Resolution : 24 bits\n      Colorimetry : 4:2:0\n      Scan type : Progressive\n      Bits/(Pixel*Frame) : 0.174\n      Stream size : 582 MiB (83%)\n      Writing library : XviD 1.2.0.dev47 (UTC 2006-11-01)\n   Audio #1\n      ID : 1\n      Format : MPEG Audio\n      Format version : Version 1\n      Format profile : Layer 3\n      Codec ID : 55\n      Codec ID/Hint : MP3\n      Duration : 1h 59mn\n      Bit rate mode : Constant\n      Bit rate : 128 Kbps\n      Channel(s) : 2 channels\n      Sampling rate : 48.0 KHz\n      Resolution : 16 bits\n      Stream size : 110 MiB (16%)\n      Alignment : Aligned on interleaves\n      Interleave, duration : 40 ms (1.00 video frame)\n      Interleave, preload duration : 504 ms\n      Writing library : LAME3.97b\n      Encoding settings : -m j -V 4 -q 2 -lowpass 17 -b 128","torrent":{"xt":"urn:btih:48388ef00e8ae9e4c10d75121d95e3e67e4d4d0a","amp;dn":"Apres+la+Vie+akter+Life+%282002%29-+Belvaux%27s+trilogy","amp;tr":["udp%3A%2F%2Ftracker.openbittorrent.com%3A80","udp%3A%2F%2Fopen.demonii.com%3A1337","udp%3A%2F%2Ftracker.coppersurfer.tk%3A6969","udp%3A%2F%2Fexodus.desync.com%3A6969"],"infoHash":"48388ef00e8ae9e4c10d75121d95e3e67e4d4d0a","infoHashBuffer":{"type":"Buffer","data":[72,56,142,240,14,138,233,228,193,13,117,18,29,149,227,230,126,77,77,10]},"announce":[],"urlList":[]}}